# xmcd CD database file
#
# Track frame offsets:
#	150
#	26496
#	58397
#	82001
#	107617
#	134044
#	159487
#	172106
#	199030
#	217116
#	234132
#	266904
#	294731
#
# Disc length: 4146 seconds
#
# Revision: 0
# Processed by: cddbd v1.5.2PL0 Copyright (c) Steve Scherf et al.
# Submitted via: CDex 1.70beta2
#
DISCID=c910300d
DTITLE=§ Sampler - Hamburger Szene-Sampler 99
DYEAR=1999
DGENRE=Jazz
TTITLE0=Her Favorite Food - Carrots Are For Eating Only
TTITLE1=Schumann/Schoen Duo - Lateral Wind
TTITLE2=Jazz Essence - Pem Pem
TTITLE3=Mondflecken - Pussiäre Bleue
TTITLE4=Weltmusikensemble - Duclap Dance
TTITLE5=Turner Hendrickxs Group - Januar
TTITLE6=Sound Of Ye - Lua Joao
TTITLE7=Blueprint Stage - Denkste
TTITLE8=Flex - Sensenmann
TTITLE9=Kaffeehaus Avantgarde - Encal
TTITLE10=TonArt - Streichquartett and Harry Nitz - 
TTITLE11=Bernd Reincke Quintett - Greenwood
TTITLE12=Tuten Und Blasen - To Al Hadj Bal Konte
EXTD=YEAR: 1999
EXTT0=
EXTT1=
EXTT2=
EXTT3=
EXTT4=
EXTT5=
EXTT6=
EXTT7=
EXTT8=
EXTT9=
EXTT10=
EXTT11=
EXTT12=
PLAYORDER=
